<?xml version="1.0" encoding="UTF-8" standalone="no"?>
<!-- Created with Inkscape (http://www.inkscape.org/) -->

<svg
   xmlns:dc="http://purl.org/dc/elements/1.1/"
   xmlns:cc="http://creativecommons.org/ns#"
   xmlns:rdf="http://www.w3.org/1999/02/22-rdf-syntax-ns#"
   xmlns:svg="http://www.w3.org/2000/svg"
   xmlns="http://www.w3.org/2000/svg"
   xmlns:sodipodi="http://sodipodi.sourceforge.net/DTD/sodipodi-0.dtd"
   xmlns:inkscape="http://www.inkscape.org/namespaces/inkscape"
   width="50"
   height="50"
   viewBox="0 0 50.000001 50.000001"
   id="svg2"
   version="1.1"
   inkscape:version="0.91 r13725"
   sodipodi:docname="plus-symbol.svg">
  <defs
     id="defs4">
    <filter
       inkscape:collect="always"
       style="color-interpolation-filters:sRGB"
       id="filter4209"
       x="-0.096000078"
       width="1.1920002"
       y="-0.095999922"
       height="1.1919998">
      <feGaussianBlur
         inkscape:collect="always"
         stdDeviation="1.4142869"
         id="feGaussianBlur4211" />
    </filter>
  </defs>
  <sodipodi:namedview
     id="base"
     pagecolor="#ffffff"
     bordercolor="#666666"
     borderopacity="1.0"
     inkscape:pageopacity="0.0"
     inkscape:pageshadow="2"
     inkscape:zoom="11.2"
     inkscape:cx="25.753076"
     inkscape:cy="22.72996"
     inkscape:document-units="px"
     inkscape:current-layer="layer1"
     showgrid="false"
     units="px"
     borderlayer="true"
     inkscape:snap-bbox="true"
     inkscape:bbox-paths="true"
     inkscape:bbox-nodes="true"
     inkscape:snap-page="true"
     inkscape:window-width="1920"
     inkscape:window-height="1056"
     inkscape:window-x="0"
     inkscape:window-y="24"
     inkscape:window-maximized="1" />
  <metadata
     id="metadata7">
    <rdf:RDF>
      <cc:Work
         rdf:about="">
        <dc:format>image/svg+xml</dc:format>
        <dc:type
           rdf:resource="http://purl.org/dc/dcmitype/StillImage" />
        <dc:title />
      </cc:Work>
    </rdf:RDF>
  </metadata>
  <g
     inkscape:label="Layer 1"
     inkscape:groupmode="layer"
     id="layer1"
     transform="translate(0,-1002.3622)">
    <g
       id="g4216"
       transform="matrix(0.83295363,0,0,0.83295361,4.2655551,171.70653)">
      <path
         id="path4139"
         transform="translate(0,1002.3622)"
         d="M 25.535156,5.8925781 A 19.642855,19.642853 0 0 0 5.8925781,25.535156 19.642855,19.642853 0 0 0 25.535156,45.177734 19.642855,19.642853 0 0 0 45.177734,25.535156 19.642855,19.642853 0 0 0 25.535156,5.8925781 Z M 25,7.3222656 A 17.678571,17.678571 0 0 1 42.677734,25 17.678571,17.678571 0 0 1 25,42.677734 17.678571,17.678571 0 0 1 7.3222656,25 17.678571,17.678571 0 0 1 25,7.3222656 Z"
         style="opacity:1;fill:#5b5b5b;fill-opacity:0.78680205;stroke:none;stroke-width:3;stroke-linejoin:miter;stroke-miterlimit:4;stroke-dasharray:none;stroke-dashoffset:5.4000001;stroke-opacity:1;filter:url(#filter4209)"
         inkscape:connector-curvature="0" />
      <path
         inkscape:connector-curvature="0"
         id="path4134"
         d="M 42.678571,1027.3622 A 17.678571,17.678571 0 0 1 25,1045.0408 17.678571,17.678571 0 0 1 7.3214285,1027.3622 17.678571,17.678571 0 0 1 25,1009.6836 a 17.678571,17.678571 0 0 1 17.678571,17.6786 z"
         style="opacity:1;fill:#ffffff;fill-opacity:0.76142123;stroke:none;stroke-width:3;stroke-linejoin:miter;stroke-miterlimit:4;stroke-dasharray:none;stroke-dashoffset:5.4000001;stroke-opacity:1" />
      <path
         inkscape:connector-curvature="0"
         id="path4138"
         d="m 25,1007.9872 c -10.686746,0 -19.3750059,8.6883 -19.375,19.375 -5.9e-6,10.6868 8.688254,19.375 19.375,19.375 10.686746,0 19.375006,-8.6882 19.375,-19.375 6e-6,-10.6867 -8.688254,-19.375 -19.375,-19.375 z m 0,2.325 c 9.430222,0 17.050005,7.6198 17.05,17.05 5e-6,9.4303 -7.619778,17.05 -17.05,17.05 -9.430222,0 -17.0500052,-7.6197 -17.05,-17.05 -5.2e-6,-9.4302 7.619778,-17.05 17.05,-17.05 z m -1.764942,9.1653 0,6.1198 -6.119775,0 0,3.5298 6.119775,0 0,6.1198 3.529884,0 0,-6.1198 6.119775,0 0,-3.5298 -6.119775,0 0,-6.1198 -3.529884,0 z"
         style="color:#000000;font-style:normal;font-variant:normal;font-weight:normal;font-stretch:normal;font-size:medium;line-height:normal;font-family:sans-serif;text-indent:0;text-align:start;text-decoration:none;text-decoration-line:none;text-decoration-style:solid;text-decoration-color:#000000;letter-spacing:normal;word-spacing:normal;text-transform:none;direction:ltr;block-progression:tb;writing-mode:lr-tb;baseline-shift:baseline;text-anchor:start;white-space:normal;clip-rule:nonzero;display:inline;overflow:visible;visibility:visible;opacity:1;isolation:auto;mix-blend-mode:normal;color-interpolation:sRGB;color-interpolation-filters:linearRGB;solid-color:#000000;solid-opacity:1;fill:#000000;fill-opacity:1;fill-rule:nonzero;stroke:none;stroke-width:3;stroke-linecap:butt;stroke-linejoin:miter;stroke-miterlimit:4;stroke-dasharray:none;stroke-dashoffset:5.4000001;stroke-opacity:1;color-rendering:auto;image-rendering:auto;shape-rendering:auto;text-rendering:auto;enable-background:accumulate" />
    </g>
  </g>
</svg>
